<?xml version="1.0" ?><svg data-name="Layer 1" id="Layer_1" viewBox="0 0 64 64" xmlns="http://www.w3.org/2000/svg"><rect height="43" rx="3" style="fill:#4f73a6" width="24" x="11" y="2"/><polygon points="30 19 30 26 27 29 19 29 16 26 16 19 13 19 13 28 18 34 18 42 28 42 28 34 33 28 33 19 30 19" style="fill:#c9e6fb"/><path d="M11,41H35v1a3,3,0,0,1-3,3H14a3,3,0,0,1-3-3Z" style="fill:#7d95b3"/><path d="M35,5V6H11V5a3,3,0,0,1,3-3H32A3,3,0,0,1,35,5Z" style="fill:#7d95b3"/><circle cx="23" cy="26" r="3" style="fill:#c9e6fb"/><path d="M41,14H39v4H7V14H5a2,2,0,0,0-2,2v6a2,2,0,0,0,2,2H7V20H39v4h2a2,2,0,0,0,2-2V16A2,2,0,0,0,41,14Z" style="fill:#7cb2f8"/><path d="M58,50H50a3,3,0,0,0-3,3v9H61V53A3,3,0,0,0,58,50Z" style="fill:#5a6c80"/><circle cx="54" cy="46" r="4" style="fill:#5a6c80"/><rect height="5.074" style="fill:#7cb2f8" transform="translate(-12.85 43.659) rotate(-45)" width="2" x="45.276" y="34.804"/><rect height="5.074" style="fill:#7cb2f8" transform="translate(-6.738 76.825) rotate(-78.689)" width="2" x="42.488" y="39.985"/><rect height="5.074" style="fill:#7cb2f8" transform="translate(-5.777 10.764) rotate(-11.311)" width="2" x="50.457" y="32.016"/><rect height="2" style="fill:#618dcc" width="2" x="22" y="56"/><rect height="2" style="fill:#618dcc" width="2" x="22" y="52"/><rect height="2" style="fill:#618dcc" width="2" x="22" y="48"/><rect height="2" style="fill:#618dcc" width="2" x="26" y="56"/><rect height="2" style="fill:#618dcc" width="2" x="30" y="56"/><rect height="2" style="fill:#618dcc" width="2" x="34" y="56"/><rect height="2" style="fill:#618dcc" width="2" x="38" y="56"/><rect height="2" style="fill:#618dcc" width="2" x="42" y="56"/><rect height="9" style="fill:#485666" width="1" x="49.5" y="53"/><rect height="9" style="fill:#485666" width="1" x="57.5" y="53"/></svg>